
<svg width="17" height="19" viewBox="0 0 17 19" fill="none" xmlns="http://www.w3.org/2000/svg">
<path d="M0 17.3333V2.33332H2.5V0.666656H4.16667V2.33332H10.8333V0.666656H12.5V2.33332H15V8.72916C14.7361 8.60416 14.4653 8.49999 14.1875 8.41666C13.9097 8.33332 13.625 8.27082 13.3333 8.22916V7.33332H1.66667V15.6667H6.91667C7.01389 15.9722 7.12847 16.2639 7.26042 16.5417C7.39236 16.8194 7.54861 17.0833 7.72917 17.3333H0ZM12.5 18.1667C11.3472 18.1667 10.3646 17.7604 9.55208 16.9479C8.73958 16.1354 8.33333 15.1528 8.33333 14C8.33333 12.8472 8.73958 11.8646 9.55208 11.0521C10.3646 10.2396 11.3472 9.83332 12.5 9.83332C13.6528 9.83332 14.6354 10.2396 15.4479 11.0521C16.2604 11.8646 16.6667 12.8472 16.6667 14C16.6667 15.1528 16.2604 16.1354 15.4479 16.9479C14.6354 17.7604 13.6528 18.1667 12.5 18.1667ZM13.8958 15.9792L14.4792 15.3958L12.9167 13.8333V11.5H12.0833V14.1667L13.8958 15.9792Z" />
</svg>
