 <svg
        width="18"
        height="18"
        viewBox="0 0 18 18"
        fill="none"
        xmlns="http://www.w3.org/2000/svg"
      >
        <path d="M8.24996 14.8334H9.70829V13.7917C10.4027 13.6667 11 13.3959 11.5 12.9792C12 12.5626 12.25 11.9445 12.25 11.1251C12.25 10.5417 12.0833 10.007 11.75 9.52091C11.4166 9.0348 10.75 8.61119 9.74996 8.25008C8.91663 7.9723 8.34024 7.72925 8.02079 7.52092C7.70135 7.31258 7.54163 7.02786 7.54163 6.66675C7.54163 6.30564 7.6701 6.02091 7.92704 5.81258C8.18399 5.60425 8.55551 5.50008 9.04163 5.50008C9.48607 5.50008 9.83329 5.60772 10.0833 5.823C10.3333 6.03828 10.5138 6.30564 10.625 6.62508L11.9583 6.08341C11.8055 5.5973 11.5243 5.17369 11.1145 4.81258C10.7048 4.45147 10.25 4.25008 9.74996 4.20841V3.16675H8.29163V4.20841C7.59718 4.36119 7.05551 4.66675 6.66663 5.12508C6.27774 5.58341 6.08329 6.0973 6.08329 6.66675C6.08329 7.31953 6.27426 7.8473 6.65621 8.25008C7.03815 8.65286 7.63885 9.00008 8.45829 9.29175C9.33329 9.61119 9.94093 9.89591 10.2812 10.1459C10.6215 10.3959 10.7916 10.7223 10.7916 11.1251C10.7916 11.5834 10.6284 11.9202 10.302 12.1355C9.97565 12.3508 9.58329 12.4584 9.12496 12.4584C8.66663 12.4584 8.26038 12.3161 7.90621 12.0313C7.55204 11.7466 7.29163 11.3195 7.12496 10.7501L5.74996 11.2917C5.9444 11.9584 6.24649 12.4966 6.65621 12.9063C7.06593 13.3161 7.59718 13.5973 8.24996 13.7501V14.8334ZM8.99996 17.3334C7.84718 17.3334 6.76385 17.1147 5.74996 16.6772C4.73607 16.2397 3.85413 15.6459 3.10413 14.8959C2.35413 14.1459 1.76038 13.264 1.32288 12.2501C0.885376 11.2362 0.666626 10.1529 0.666626 9.00008C0.666626 7.8473 0.885376 6.76397 1.32288 5.75008C1.76038 4.73619 2.35413 3.85425 3.10413 3.10425C3.85413 2.35425 4.73607 1.7605 5.74996 1.323C6.76385 0.885498 7.84718 0.666748 8.99996 0.666748C10.1527 0.666748 11.2361 0.885498 12.25 1.323C13.2638 1.7605 14.1458 2.35425 14.8958 3.10425C15.6458 3.85425 16.2395 4.73619 16.677 5.75008C17.1145 6.76397 17.3333 7.8473 17.3333 9.00008C17.3333 10.1529 17.1145 11.2362 16.677 12.2501C16.2395 13.264 15.6458 14.1459 14.8958 14.8959C14.1458 15.6459 13.2638 16.2397 12.25 16.6772C11.2361 17.1147 10.1527 17.3334 8.99996 17.3334Z" />
      </svg>