
<svg width="15" height="19" viewBox="0 0 15 19" fill="none" xmlns="http://www.w3.org/2000/svg">
<path d="M0.833008 18.3333V6.66668H3.33301V5.00001C3.33301 3.84723 3.73926 2.86459 4.55176 2.05209C5.36426 1.23959 6.3469 0.833344 7.49967 0.833344C8.65245 0.833344 9.63509 1.23959 10.4476 2.05209C11.2601 2.86459 11.6663 3.84723 11.6663 5.00001V6.66668H14.1663V18.3333H0.833008ZM7.49967 14.1667C7.95801 14.1667 8.35037 14.0035 8.67676 13.6771C9.00315 13.3507 9.16634 12.9583 9.16634 12.5C9.16634 12.0417 9.00315 11.6493 8.67676 11.3229C8.35037 10.9965 7.95801 10.8333 7.49967 10.8333C7.04134 10.8333 6.64898 10.9965 6.32259 11.3229C5.9962 11.6493 5.83301 12.0417 5.83301 12.5C5.83301 12.9583 5.9962 13.3507 6.32259 13.6771C6.64898 14.0035 7.04134 14.1667 7.49967 14.1667ZM4.99967 6.66668H9.99967V5.00001C9.99967 4.30557 9.75662 3.71529 9.27051 3.22918C8.7844 2.74307 8.19412 2.50001 7.49967 2.50001C6.80523 2.50001 6.21495 2.74307 5.72884 3.22918C5.24273 3.71529 4.99967 4.30557 4.99967 5.00001V6.66668Z" />
</svg>
