
<svg width="16" height="17" viewBox="0 0 16 17" fill="none" xmlns="http://www.w3.org/2000/svg">
<path d="M0 13.6667V11.3333C0 10.8611 0.121528 10.4271 0.364583 10.0313C0.607639 9.63543 0.930556 9.33334 1.33333 9.12501C2.19444 8.69445 3.06944 8.37154 3.95833 8.15626C4.84722 7.94098 5.75 7.83334 6.66667 7.83334C6.94444 7.83334 7.22222 7.84376 7.5 7.86459C7.77778 7.88543 8.05556 7.91668 8.33333 7.95834C8.27778 8.7639 8.42361 9.52432 8.77083 10.2396C9.11806 10.9549 9.625 11.5417 10.2917 12V13.6667H0ZM13.3333 16.1667L12.0833 14.9167V11.0417C11.4722 10.8611 10.9722 10.5174 10.5833 10.0104C10.1944 9.50348 10 8.91668 10 8.25001C10 7.44445 10.2847 6.75695 10.8542 6.18751C11.4236 5.61807 12.1111 5.33334 12.9167 5.33334C13.7222 5.33334 14.4097 5.61807 14.9792 6.18751C15.5486 6.75695 15.8333 7.44445 15.8333 8.25001C15.8333 8.87501 15.6563 9.43057 15.3021 9.91668C14.9479 10.4028 14.5 10.75 13.9583 10.9583L15 12L13.75 13.25L15 14.5L13.3333 16.1667ZM6.66667 7.00001C5.75 7.00001 4.96528 6.67362 4.3125 6.02084C3.65972 5.36807 3.33333 4.58334 3.33333 3.66668C3.33333 2.75001 3.65972 1.96529 4.3125 1.31251C4.96528 0.659732 5.75 0.333344 6.66667 0.333344C7.58333 0.333344 8.36806 0.659732 9.02083 1.31251C9.67361 1.96529 10 2.75001 10 3.66668C10 4.58334 9.67361 5.36807 9.02083 6.02084C8.36806 6.67362 7.58333 7.00001 6.66667 7.00001ZM12.9167 8.66668C13.1528 8.66668 13.3507 8.58682 13.5104 8.42709C13.6701 8.26737 13.75 8.06945 13.75 7.83334C13.75 7.59723 13.6701 7.39932 13.5104 7.23959C13.3507 7.07987 13.1528 7.00001 12.9167 7.00001C12.6806 7.00001 12.4826 7.07987 12.3229 7.23959C12.1632 7.39932 12.0833 7.59723 12.0833 7.83334C12.0833 8.06945 12.1632 8.26737 12.3229 8.42709C12.4826 8.58682 12.6806 8.66668 12.9167 8.66668Z" />
</svg>
