
<svg width="15" height="14" viewBox="0 0 15 14" fill="none" xmlns="http://www.w3.org/2000/svg">
<path d="M7.49967 7.00001C6.58301 7.00001 5.79829 6.67362 5.14551 6.02084C4.49273 5.36807 4.16634 4.58334 4.16634 3.66668C4.16634 2.75001 4.49273 1.96529 5.14551 1.31251C5.79829 0.659732 6.58301 0.333344 7.49967 0.333344C8.41634 0.333344 9.20106 0.659732 9.85384 1.31251C10.5066 1.96529 10.833 2.75001 10.833 3.66668C10.833 4.58334 10.5066 5.36807 9.85384 6.02084C9.20106 6.67362 8.41634 7.00001 7.49967 7.00001ZM0.833008 13.6667V11.3333C0.833008 10.8611 0.954536 10.4271 1.19759 10.0313C1.44065 9.63543 1.76356 9.33334 2.16634 9.12501C3.02745 8.69445 3.90245 8.37154 4.79134 8.15626C5.68023 7.94098 6.58301 7.83334 7.49967 7.83334C8.41634 7.83334 9.31912 7.94098 10.208 8.15626C11.0969 8.37154 11.9719 8.69445 12.833 9.12501C13.2358 9.33334 13.5587 9.63543 13.8018 10.0313C14.0448 10.4271 14.1663 10.8611 14.1663 11.3333V13.6667H0.833008Z"/>
</svg>
