
<svg width="18" height="18" viewBox="0 0 18 18" fill="none" xmlns="http://www.w3.org/2000/svg">
<path d="M11.4582 3.1665C11.1665 3.1665 10.92 3.06581 10.7186 2.86442C10.5172 2.66303 10.4165 2.4165 10.4165 2.12484C10.4165 1.83317 10.5172 1.58664 10.7186 1.38525C10.92 1.18387 11.1665 1.08317 11.4582 1.08317C11.7498 1.08317 11.9964 1.18387 12.1978 1.38525C12.3991 1.58664 12.4998 1.83317 12.4998 2.12484C12.4998 2.4165 12.3991 2.66303 12.1978 2.86442C11.9964 3.06581 11.7498 3.1665 11.4582 3.1665ZM11.4582 16.9165C11.1665 16.9165 10.92 16.8158 10.7186 16.6144C10.5172 16.413 10.4165 16.1665 10.4165 15.8748C10.4165 15.5832 10.5172 15.3366 10.7186 15.1353C10.92 14.9339 11.1665 14.8332 11.4582 14.8332C11.7498 14.8332 11.9964 14.9339 12.1978 15.1353C12.3991 15.3366 12.4998 15.5832 12.4998 15.8748C12.4998 16.1665 12.3991 16.413 12.1978 16.6144C11.9964 16.8158 11.7498 16.9165 11.4582 16.9165ZM14.7915 6.08317C14.4998 6.08317 14.2533 5.98248 14.0519 5.78109C13.8505 5.5797 13.7498 5.33317 13.7498 5.0415C13.7498 4.74984 13.8505 4.50331 14.0519 4.30192C14.2533 4.10053 14.4998 3.99984 14.7915 3.99984C15.0832 3.99984 15.3297 4.10053 15.5311 4.30192C15.7325 4.50331 15.8332 4.74984 15.8332 5.0415C15.8332 5.33317 15.7325 5.5797 15.5311 5.78109C15.3297 5.98248 15.0832 6.08317 14.7915 6.08317ZM14.7915 13.9998C14.4998 13.9998 14.2533 13.8991 14.0519 13.6978C13.8505 13.4964 13.7498 13.2498 13.7498 12.9582C13.7498 12.6665 13.8505 12.42 14.0519 12.2186C14.2533 12.0172 14.4998 11.9165 14.7915 11.9165C15.0832 11.9165 15.3297 12.0172 15.5311 12.2186C15.7325 12.42 15.8332 12.6665 15.8332 12.9582C15.8332 13.2498 15.7325 13.4964 15.5311 13.6978C15.3297 13.8991 15.0832 13.9998 14.7915 13.9998ZM16.0415 10.0415C15.7498 10.0415 15.5033 9.94081 15.3019 9.73942C15.1005 9.53803 14.9998 9.2915 14.9998 8.99984C14.9998 8.70817 15.1005 8.46164 15.3019 8.26025C15.5033 8.05887 15.7498 7.95817 16.0415 7.95817C16.3332 7.95817 16.5797 8.05887 16.7811 8.26025C16.9825 8.46164 17.0832 8.70817 17.0832 8.99984C17.0832 9.2915 16.9825 9.53803 16.7811 9.73942C16.5797 9.94081 16.3332 10.0415 16.0415 10.0415ZM8.74984 17.3332C7.59706 17.3332 6.51373 17.1144 5.49984 16.6769C4.48595 16.2394 3.604 15.6457 2.854 14.8957C2.104 14.1457 1.51025 13.2637 1.07275 12.2498C0.635254 11.2359 0.416504 10.1526 0.416504 8.99984C0.416504 7.84706 0.635254 6.76373 1.07275 5.74984C1.51025 4.73595 2.104 3.854 2.854 3.104C3.604 2.354 4.48595 1.76025 5.49984 1.32275C6.51373 0.885254 7.59706 0.666504 8.74984 0.666504V2.33317C6.88873 2.33317 5.31234 2.979 4.02067 4.27067C2.729 5.56234 2.08317 7.13873 2.08317 8.99984C2.08317 10.8609 2.729 12.4373 4.02067 13.729C5.31234 15.0207 6.88873 15.6665 8.74984 15.6665V17.3332ZM11.4998 12.9165L7.9165 9.33317V4.83317H9.58317V8.6665L12.6665 11.7498L11.4998 12.9165Z"/>
</svg>
