<svg width="86" height="52" viewBox="0 0 86 52" fill="none" xmlns="http://www.w3.org/2000/svg">
<path d="M46.9826 14.0676C44.3432 9.47781 40.256 5.88558 35.3564 3.84933C30.4568 1.81308 25.0193 1.44691 19.8893 2.80773C14.7593 4.16856 10.2242 7.18014 6.98904 11.3743C3.7539 15.5684 2 20.7101 2 26C2 31.2899 3.7539 36.4316 6.98904 40.6257C10.2242 44.8199 14.7593 47.8314 19.8893 49.1923C25.0193 50.5531 30.4568 50.1869 35.3564 48.1507C40.256 46.1144 44.3432 42.5222 46.9826 37.9324" stroke="white" stroke-width="3"/>
<path d="M20.9647 22.5728C22.0908 22.5728 22.0908 20.6694 20.9647 20.6694H17.9522V20.0113C17.9522 17.606 20.7746 16.8863 22.0623 18.0747C23.0031 18.8891 24.4429 17.4166 23.3452 16.4791C20.4278 14.2301 15.6619 15.982 15.6619 19.9829V20.6694H13.9989C12.7777 20.6694 12.7445 22.5728 13.9704 22.5728H15.6619V35.3235C15.6619 36.7013 17.9522 36.7013 17.9522 35.3235V22.5728H20.9647ZM28.3724 21.2328C28.3724 20.5416 27.902 20.1391 27.213 20.1391C26.4908 20.1391 26.0821 20.5416 26.0821 21.2328V29.514C26.0821 34.012 29.5651 36.5119 33.2048 36.5119C35.6471 36.5119 38.0656 35.5129 39.1918 33.2308V35.2004C39.1918 36.7013 41.4488 36.6682 41.4488 35.2288V21.2328C41.4488 20.5416 40.9784 20.1391 40.2609 20.1391C39.5386 20.1391 39.13 20.5416 39.13 21.2328V28.4818C39.13 31.8861 36.2743 34.386 33.2333 34.386C30.6959 34.386 28.3724 32.388 28.3724 29.514V21.2328ZM56.7964 20.3569C55.2569 19.9497 53.5653 19.9166 52.0923 20.3569C46.2574 21.9809 44.7844 29.1683 48.1723 33.6048C49.6452 35.4514 52.0923 36.3888 54.5394 36.3888C56.5778 36.4173 58.678 35.8538 60.1177 34.5139C61.3436 33.2639 59.7139 31.9808 58.6162 32.9798C57.3903 33.9173 55.8841 34.2913 54.4444 34.2913C51.3083 34.2913 49.1131 32.1702 48.7044 29.6039H61.0918C62.3795 29.6039 62.6931 28.8558 62.6266 28.1693V28.1977C62.5648 24.2015 60.3696 21.3228 56.8249 20.3569H56.7964ZM52.7813 22.4165C53.8457 22.104 55.1333 22.104 56.1692 22.3881H56.1359C58.583 23.0131 60.2128 25.0443 60.4313 27.7005H48.6094C48.7995 25.1674 50.2725 23.0747 52.7813 22.4165ZM71.6071 28.1693L66.1523 34.5423C65.0546 35.7307 66.7129 37.2316 67.8106 36.0101L73.1751 29.514L78.8817 36.0432C79.8843 37.1701 81.5806 35.7639 80.6066 34.6701L74.6813 28.1693L80.5448 21.6684C81.3621 20.5747 79.509 19.3579 78.6964 20.4516L73.1418 26.763L68.0006 20.4516C67.1548 19.4478 65.2399 20.48 66.2425 21.7915L71.6071 28.1693Z" fill="white"/>
</svg>
